HIERARCHY
ROOT SpineBase
{
  OFFSET 0.000000 0.000000 0.000000
  CHANNELS 6 Xposition Yposition Zposition Zrotation Xrotation Yrotation
  JOINT SpineMid
  {
    OFFSET 0.000000 26.935114 0.000000
    CHANNELS 3 Zrotation Xrotation Yrotation
    JOINT SpineShoulder
    {
      OFFSET 0.133026 20.040616 -0.570963
      CHANNELS 3 Zrotation Xrotation Yrotation
      JOINT Neck
      {
        OFFSET 0.019872 6.638233 -0.527500
        CHANNELS 3 Zrotation Xrotation Yrotation
        JOINT Head
        {
          OFFSET 2.363767 14.520125 2.797271
          CHANNELS 3 Zrotation Xrotation Yrotation
          End Site
          {
            OFFSET 0 0 0
          }
        }
      }
      JOINT ShoulderLeft
      {
        OFFSET -9.757144 -3.409716 -8.151527
        CHANNELS 3 Zrotation Xrotation Yrotation
        JOINT ElbowLeft
        {
          OFFSET -2.859343 -21.314742 -6.385685
          CHANNELS 3 Zrotation Xrotation Yrotation
          JOINT WristLeft
          {
            OFFSET 9.024313 -18.505702 -4.133544
            CHANNELS 3 Zrotation Xrotation Yrotation
            JOINT HandLeft
            {
              OFFSET 3.564645 -4.376726 3.082751
              CHANNELS 3 Zrotation Xrotation Yrotation
              JOINT HandTipLeft
              {
                OFFSET 6.791932 -6.332723 -0.323276
                CHANNELS 3 Zrotation Xrotation Yrotation
                End Site
                {
                  OFFSET 0 0 0
                }
              }
              JOINT ThumbLeft
              {
                OFFSET 2.562425 -2.540499 -7.288912
                CHANNELS 3 Zrotation Xrotation Yrotation
                End Site
                {
                  OFFSET 0 0 0
                }
              }
            }
          }
        }
      }
      JOINT ShoulderRight
      {
        OFFSET 12.340593 -5.671783 5.238930
        CHANNELS 3 Zrotation Xrotation Yrotation
        JOINT ElbowRight
        {
          OFFSET 1.815487 -25.751876 -0.247569
          CHANNELS 3 Zrotation Xrotation Yrotation
          JOINT WristRight
          {
            OFFSET 1.162409 -18.446070 -11.437838
            CHANNELS 3 Zrotation Xrotation Yrotation
            JOINT HandRight
            {
              OFFSET -1.812834 -3.455421 -3.244898
              CHANNELS 3 Zrotation Xrotation Yrotation
              JOINT HandTipRight
              {
                OFFSET -2.262382 -3.156865 -2.440320
                CHANNELS 3 Zrotation Xrotation Yrotation
                End Site
                {
                  OFFSET 0 0 0
                }
              }
              JOINT ThumbRight
              {
                OFFSET 1.407369 -2.226118 -1.303910
                CHANNELS 3 Zrotation Xrotation Yrotation
                End Site
                {
                  OFFSET 0 0 0
                }
              }
            }
          }
        }
      }
    }
  }
  JOINT HipLeft
  {
    OFFSET -4.263057 0.511690 -6.368556
    CHANNELS 3 Zrotation Xrotation Yrotation
    JOINT KneeLeft
    {
      OFFSET -8.731257 -31.235315 3.407800
      CHANNELS 3 Zrotation Xrotation Yrotation
      JOINT AnkleLeft
      {
        OFFSET -5.465768 -33.189806 12.599162
        CHANNELS 3 Zrotation Xrotation Yrotation
        JOINT FootLeft
        {
          OFFSET 3.563617 -4.466374 -5.568501
          CHANNELS 3 Zrotation Xrotation Yrotation
          End Site
          {
            OFFSET 0 0 0
          }
        }
      }
    }
  }
  JOINT HipRight
  {
    OFFSET 3.920020 0.638920 0.220195
    CHANNELS 3 Zrotation Xrotation Yrotation
    JOINT KneeRight
    {
      OFFSET -2.367487 -24.513220 -15.189812
      CHANNELS 3 Zrotation Xrotation Yrotation
      JOINT AnkleRight
      {
        OFFSET -9.798167 -34.912563 21.290198
        CHANNELS 3 Zrotation Xrotation Yrotation
        JOINT FootRight
        {
          OFFSET 3.833530 -3.297596 -9.687270
          CHANNELS 3 Zrotation Xrotation Yrotation
          End Site
          {
            OFFSET 0 0 0
          }
        }
      }
    }
  }
}
MOTION
Frames: 6
Frame Time: 0.033333
19.865053 71.114603 367.969049 -4.033453 -1.797029 -34.572672 -0.616804 -0.420036 34.394745 0.428298 0.460601 -0.206489 -2.318938 -13.449380 3.349565 0.000000 0.000000 0.000000 4.586054 11.840548 -1.196486 43.854019 1.240152 0.230775 0.564879 -2.709382 34.743285 -2.623024 13.461624 -20.516847 0.000000 0.000000 0.000000 0.000000 0.000000 0.000000 5.826093 -12.331545 -0.551395 30.300306 75.007340 -27.340345 -4.709473 -15.114153 -22.658345 -14.652834 -3.205744 -4.111385 0.000000 0.000000 0.000000 0.000000 0.000000 0.000000 7.438967 4.802538 35.152110 -4.679825 4.454621 -1.387694 -11.785464 -31.289941 -20.028169 0.000000 0.000000 0.000000 28.996071 -27.839986 43.833104 4.188734 55.183501 -10.145807 -12.413620 -33.456088 28.300613 0.000000 0.000000 0.000000
19.820212 71.154395 367.950428 -4.222855 -1.594373 -34.793591 -0.253983 -0.355672 34.613891 0.353969 0.550537 -0.200683 -2.359272 -13.519016 3.322582 0.000000 0.000000 0.000000 5.145588 11.939582 -1.481291 45.859892 -0.508332 0.088601 4.953273 8.390832 42.239620 -12.966336 7.899181 -30.100371 0.000000 0.000000 0.000000 0.000000 0.000000 0.000000 5.881277 -11.434056 -0.476024 31.590855 75.132445 -28.611678 -4.152962 -15.423493 -23.167557 -22.860864 -1.782750 -4.123582 0.000000 0.000000 0.000000 0.000000 0.000000 0.000000 7.666809 4.718053 35.381344 -4.249006 4.151161 -1.209638 -10.273412 -28.153303 -17.682857 0.000000 0.000000 0.000000 29.434532 -27.786092 44.062566 4.260519 55.162808 -10.118486 -14.046236 -40.914164 26.508375 0.000000 0.000000 0.000000
19.794895 71.184212 367.940263 -4.268177 -1.512845 -34.730511 -0.192853 -0.263036 34.554206 0.368847 0.508836 -0.197718 -2.491817 -13.548158 3.309846 0.000000 0.000000 0.000000 5.112701 12.094409 -1.529780 49.428613 0.900955 -0.155759 5.551356 16.917822 48.582798 -18.375822 -4.558940 -39.994677 0.000000 0.000000 0.000000 0.000000 0.000000 0.000000 6.093002 -10.758395 -0.411005 34.419708 75.652535 -31.562644 -0.963243 -19.078467 -22.844207 -41.122693 0.908138 -2.335023 0.000000 0.000000 0.000000 0.000000 0.000000 0.000000 7.637126 4.684546 35.298499 -3.876594 3.846337 -1.048304 -10.568237 -27.370381 -16.949440 0.000000 0.000000 0.000000 29.627436 -27.986939 44.116600 4.181672 55.463400 -10.194280 -15.751128 -48.562929 32.266289 0.000000 0.000000 0.000000
19.791793 71.212221 367.973806 -4.283917 -1.454676 -34.794102 -0.100680 -0.186896 34.621233 0.355366 0.502454 -0.193494 -2.689115 -13.638897 3.309975 0.000000 0.000000 0.000000 4.505151 12.384557 -1.369946 52.446514 5.184796 -0.343043 6.188907 22.205126 54.680570 -24.842250 -17.010119 -48.388552 0.000000 0.000000 0.000000 0.000000 0.000000 0.000000 6.305643 -10.451065 -0.370563 34.280459 76.436420 -31.707820 2.411648 -18.857470 -23.520367 -34.376484 -3.844491 -2.673795 0.000000 0.000000 0.000000 0.000000 0.000000 0.000000 7.495660 4.727296 35.318619 -3.659842 3.523677 -0.930980 -12.700757 -29.407499 -18.279985 0.000000 0.000000 0.000000 29.664203 -28.009835 44.234426 4.256979 55.441986 -10.271193 -16.296077 -52.754135 36.420655 0.000000 0.000000 0.000000
19.815867 71.257570 368.031413 -4.273530 -1.419144 -34.889931 -0.047265 -0.108345 34.721124 0.316296 0.543520 -0.189524 -2.784162 -14.018457 3.329293 0.000000 0.000000 0.000000 3.600044 12.617577 -1.070827 55.599716 9.213627 -0.703579 0.804923 24.103703 57.770818 -32.360499 -25.308353 -54.762451 0.000000 0.000000 0.000000 0.000000 0.000000 0.000000 6.749080 -10.766128 -0.338366 34.110378 77.589334 -32.080635 1.582841 -19.575214 -23.388387 -35.400218 -4.896185 -2.222742 0.000000 0.000000 0.000000 0.000000 0.000000 0.000000 7.163483 4.823091 35.334298 -3.521316 3.170938 -0.846922 -15.330723 -34.313497 -24.991776 0.000000 0.000000 0.000000 29.464012 -27.479685 43.921339 3.378738 54.670795 -9.489249 -14.414258 -43.292874 28.538579 0.000000 0.000000 0.000000
19.857005 71.304691 368.116455 -4.231312 -1.452630 -34.965951 -0.008190 -0.033850 34.800308 0.304541 0.548283 -0.184665 -2.987744 -14.304434 3.358751 0.000000 0.000000 0.000000 2.475154 13.076093 -0.719194 58.138047 12.964876 -0.918737 -4.652223 22.215504 58.100559 -31.923067 -29.981393 -55.476082 0.000000 0.000000 0.000000 0.000000 0.000000 0.000000 6.126215 -17.345276 -0.728723 53.770327 81.868421 -51.722840 -3.231960 -15.654175 -23.984538 -29.999267 -2.195708 -4.136887 0.000000 0.000000 0.000000 0.000000 0.000000 0.000000 6.787344 4.900267 35.341399 -2.610016 2.597540 -0.465395 -11.272078 -28.836774 -21.187503 0.000000 0.000000 0.000000 29.223311 -27.405751 44.026470 3.763694 54.419921 -9.702064 -13.832288 -40.756389 26.649510 0.000000 0.000000 0.000000
